<?xml version="1.0" standalone="no"?>
<!DOCTYPE svg PUBLIC "-//W3C//DTD SVG 20010904//EN"
 "http://www.w3.org/TR/2001/REC-SVG-20010904/DTD/svg10.dtd">
<svg version="1.0" xmlns="http://www.w3.org/2000/svg"
 width="700.000000pt" height="700.000000pt" viewBox="0 0 700.000000 700.000000"
 preserveAspectRatio="xMidYMid meet">
<metadata>
Created by potrace 1.11, written by Peter Selinger 2001-2013
</metadata>
<g transform="translate(0.000000,700.000000) scale(0.100000,-0.100000)"
fill="#000000" stroke="none">
<path d="M2118 6032 l-1448 -817 3 -1679 2 -1679 1447 -854 1446 -853 1451
818 1450 817 -2 1680 -2 1679 -70 41 c-38 23 -522 309 -1075 635 -553 326
-1168 689 -1367 806 -198 118 -367 216 -375 218 -7 3 -664 -363 -1460 -812z
m2729 -336 l1278 -754 3 -1474 2 -1474 -272 -154 c-150 -84 -462 -260 -693
-390 -231 -131 -684 -386 -1007 -569 l-588 -331 -87 53 c-49 29 -625 369
-1280 756 l-1193 703 0 1473 0 1472 1278 721 c702 397 1278 721 1279 722 0 0
576 -339 1280 -754z"/>
<path d="M2759 4733 c-60 -156 -953 -2522 -957 -2535 -4 -17 11 -18 225 -18
l230 0 104 300 104 300 501 0 501 0 104 -297 105 -298 262 -3 262 -2 0 545 0
545 515 0 515 0 0 180 0 180 -515 0 -515 0 0 385 0 385 595 0 595 0 -2 178 -3
177 -817 3 -818 2 -2 -766 -3 -766 -290 766 -289 766 -198 0 -198 0 -11 -27z
m400 -1067 c99 -286 179 -521 177 -523 -1 -2 -169 -2 -373 -1 l-370 3 148 425
c217 622 221 632 229 623 4 -4 89 -242 189 -527z"/>
</g>
</svg>
